<svg width="60" height="60" viewBox="0 0 60 60" fill="none" xmlns="http://www.w3.org/2000/svg">
<rect width="60" height="59.0164" fill="white"/>
<path d="M22.4013 16.9063C22.4013 17.4208 21.9776 17.8375 21.4545 17.8375C20.9314 17.8375 20.5078 17.4208 20.5078 16.9063C20.5078 16.3917 20.9314 15.975 21.4545 15.975C21.9776 15.975 22.4013 16.3917 22.4013 16.9063Z" fill="#595959"/>
<path d="M47.9466 41.3563C47.0643 41.3563 46.2314 41.5664 45.4946 41.9358V26.4849C45.4946 26.1631 45.3793 25.8679 45.1877 25.6356C45.3628 25.1061 45.4524 24.5546 45.4524 23.9897C45.4524 22.6612 44.9546 21.4462 44.1347 20.5121C44.7891 19.0148 44.7396 17.7521 43.9795 17.0085C43.3773 16.4196 42.4459 16.2673 41.3167 16.5624C41.1842 15.4443 40.708 14.6595 39.9448 14.3225C39.149 13.9713 38.1993 14.1692 37.2253 14.8766C36.629 13.7123 35.7923 13.0544 34.8715 13.049C34.8677 13.049 34.8636 13.049 34.8595 13.049C33.2641 13.049 31.9838 14.9861 31.6305 17.7906C30.9391 17.4752 30.17 17.2979 29.3594 17.2979C27.959 17.2979 26.6218 17.8362 25.6227 18.7706C20.8303 10.0736 18.0579 7.03165 16.0282 8.06095C13.7712 9.2054 15.1507 14.0057 20.9539 25.1348H20.754C19.997 25.1348 19.3814 25.7403 19.3814 26.4849V50.7811C19.3814 51.5253 19.997 52.1312 20.754 52.1312H37.0962C37.4615 52.1312 37.7578 51.8397 37.7578 51.4804C37.7578 51.1211 37.4615 50.83 37.0962 50.83H20.754C20.7262 50.83 20.7039 50.8081 20.7039 50.7811V26.4849C20.7039 26.4579 20.7262 26.4359 20.754 26.4359H24.4207V32.8775C24.4207 37.2256 28.0171 40.7633 32.4377 40.7633C36.8583 40.7633 40.455 37.2256 40.455 32.8775V26.4359H44.1217C44.1491 26.4359 44.1714 26.4579 44.1714 26.4849V42.8682C43.1593 43.837 42.529 45.1898 42.529 46.6855C42.529 48.1811 43.1593 49.5339 44.1714 50.5025V50.7811C44.1714 50.8081 44.1491 50.8304 44.1217 50.8304H40.2078C39.8425 50.8304 39.5465 51.1214 39.5465 51.4808C39.5465 51.8401 39.8425 52.1312 40.2078 52.1312H44.1217C44.6658 52.1312 45.1355 51.8178 45.3573 51.3653C46.127 51.7789 47.0094 52.0143 47.9466 52.0143C50.9339 52.0143 53.3643 49.6238 53.3643 46.6855C53.3643 43.7469 50.9339 41.3563 47.9466 41.3563ZM41.8701 25.1348C41.2456 22.9746 39.2997 21.4252 37.0032 21.2841C37.7688 20.4577 38.8668 19.9617 40.0347 19.9617C42.2924 19.9617 44.1296 21.7687 44.1296 23.9893C44.1296 24.3817 44.0722 24.765 43.961 25.1348H41.8701ZM32.8452 25.1348C33.4464 23.6135 34.9436 22.5734 36.6606 22.5734C38.3765 22.5734 39.8748 23.6138 40.4763 25.1348H32.8452ZM34.8598 14.3498H34.8633C35.3422 14.3529 35.8764 14.9617 36.2568 15.9394C36.3564 16.195 36.5775 16.3851 36.8484 16.4476C37.1192 16.5101 37.4032 16.4368 37.6085 16.2517C38.3119 15.6159 38.9996 15.3312 39.403 15.5095C39.792 15.6814 40.0272 16.3166 40.0317 17.2091C40.033 17.4806 40.17 17.7346 40.398 17.8875C40.6259 18.0405 40.9157 18.0733 41.1735 17.9757C42.0391 17.6468 42.7394 17.6305 43.0467 17.9311C43.3358 18.2137 43.3392 18.828 43.081 19.5855C42.2124 19.0023 41.1632 18.6609 40.0347 18.6609C38.0479 18.6609 36.2136 19.7455 35.2718 21.4495C35.0706 21.5019 34.8739 21.5654 34.6823 21.6393C34.4499 20.426 33.799 19.3572 32.8823 18.5835C33.0533 16.0701 34.0345 14.3498 34.8598 14.3498ZM29.3591 18.5987C31.5097 18.5987 33.2771 20.2382 33.4405 22.313C32.4981 22.9972 31.7857 23.9782 31.4517 25.1348H28.9784C28.5416 24.2706 28.0648 23.3447 27.5573 22.3769C27.1165 21.536 26.6911 20.7363 26.2795 19.9745C27.0533 19.1076 28.1764 18.5987 29.3591 18.5987ZM23.0777 16.9484C22.0625 17.3796 21.2807 17.539 20.8773 17.5485C21.1128 17.2354 21.6796 16.7167 22.6125 16.1575C22.7649 16.4138 22.9201 16.6776 23.0777 16.9484ZM22.3738 25.0058C19.8346 20.1612 18.1448 16.5368 17.2082 13.9243C15.7652 9.89902 16.4769 9.29691 16.6342 9.21722C16.7918 9.13752 17.7033 8.91633 20.1999 12.4071C20.7338 13.1534 21.3113 14.03 21.9365 15.0418C20.844 15.7013 18.9358 17.0636 19.5449 18.2252C19.7852 18.6838 20.2741 18.849 20.8536 18.849C21.8026 18.8486 22.9935 18.4059 23.73 18.0861C24.0946 18.7304 25.323 20.9774 25.5118 21.3307C24.4465 21.7964 23.6249 21.9689 23.2047 21.9794C23.2455 21.9247 23.2994 21.8595 23.3691 21.7842C23.6153 21.5188 23.5961 21.1071 23.3262 20.865C23.0567 20.6232 22.6382 20.6418 22.392 20.9072C21.6309 21.7278 21.6865 22.311 21.8671 22.6554C22.0964 23.0931 22.5785 23.2697 23.1892 23.2697C24.0307 23.2697 25.117 22.934 26.1257 22.4859C26.2105 22.6467 27.4997 25.1345 27.4997 25.1345H22.4415L22.3738 25.0058ZM39.1321 32.8775C39.1321 36.5084 36.1291 39.4622 32.4377 39.4622C28.7466 39.4622 25.7436 36.5084 25.7436 32.8775V26.4359H26.9174V28.4385C26.9174 28.7978 27.2137 29.0889 27.5786 29.0889C27.9439 29.0889 28.2402 28.7978 28.2402 28.4385V26.4359C28.2402 26.4359 28.565 26.4366 28.5688 26.4366C28.5736 26.4366 36.6355 26.4359 36.6355 26.4359V32.8775C36.6355 35.1542 34.7524 37.0061 32.4377 37.0061C30.1233 37.0061 28.2402 35.1542 28.2402 32.8775V31.524C28.2402 31.1647 27.9443 30.8733 27.579 30.8733C27.2137 30.8733 26.9174 31.1647 26.9174 31.524V32.8775C26.9174 35.8715 29.3941 38.3073 32.438 38.3073C35.4819 38.3073 37.9583 35.8715 37.9583 32.8775V26.4359H39.1321V32.8775ZM47.9466 50.7132C45.6886 50.7132 43.8518 48.9062 43.8518 46.6855C43.8518 44.4645 45.6886 42.6575 47.9466 42.6575C50.2047 42.6575 52.0414 44.4645 52.0414 46.6855C52.0414 48.9062 50.2047 50.7132 47.9466 50.7132Z" fill="#595959"/>
<ellipse cx="49" cy="50.1639" rx="10" ry="9.83607" fill="#EA6464"/>
<path d="M45.8492 51.3773C45.5992 51.3773 45.3542 51.334 45.1142 51.2473C44.8742 51.1606 44.6592 51.0306 44.4692 50.8573C44.2826 50.6806 44.1326 50.464 44.0192 50.2073C43.9059 49.9473 43.8492 49.644 43.8492 49.2973C43.8492 48.974 43.9092 48.6706 44.0292 48.3873C44.1492 48.104 44.3176 47.8556 44.5342 47.6423C44.7509 47.429 45.0109 47.2606 45.3142 47.1373C45.6176 47.014 45.9526 46.9523 46.3192 46.9523C46.6892 46.9523 47.0209 47.0106 47.3142 47.1273C47.6109 47.244 47.8626 47.4073 48.0692 47.6173C48.2792 47.8273 48.4392 48.079 48.5492 48.3723C48.6626 48.6656 48.7192 48.9873 48.7192 49.3373C48.7192 49.5606 48.6992 49.7723 48.6592 49.9723C48.6226 50.1723 48.5676 50.3656 48.4942 50.5523C48.4242 50.7356 48.3392 50.9156 48.2392 51.0923C48.1392 51.2656 48.0276 51.4406 47.9042 51.6173L46.2492 53.9773C46.1926 54.0573 46.1076 54.1256 45.9942 54.1823C45.8842 54.2356 45.7576 54.2623 45.6142 54.2623H44.4792L46.7242 51.4573C46.7809 51.3873 46.8342 51.319 46.8842 51.2523C46.9342 51.1856 46.9826 51.119 47.0292 51.0523C46.8626 51.159 46.6792 51.2406 46.4792 51.2973C46.2792 51.3506 46.0692 51.3773 45.8492 51.3773ZM47.5342 49.2123C47.5342 49.0156 47.5042 48.8406 47.4442 48.6873C47.3842 48.5306 47.2992 48.399 47.1892 48.2923C47.0792 48.1856 46.9476 48.104 46.7942 48.0473C46.6442 47.9906 46.4792 47.9623 46.2992 47.9623C46.1126 47.9623 45.9442 47.994 45.7942 48.0573C45.6442 48.1173 45.5159 48.2023 45.4092 48.3123C45.3059 48.4223 45.2259 48.554 45.1692 48.7073C45.1126 48.8573 45.0842 49.0223 45.0842 49.2023C45.0842 49.6056 45.1876 49.914 45.3942 50.1273C45.6042 50.3373 45.9009 50.4423 46.2842 50.4423C46.4842 50.4423 46.6609 50.4106 46.8142 50.3473C46.9709 50.284 47.1026 50.1973 47.2092 50.0873C47.3159 49.9773 47.3959 49.8473 47.4492 49.6973C47.5059 49.5473 47.5342 49.3856 47.5342 49.2123ZM51.65 51.3773C51.4 51.3773 51.155 51.334 50.915 51.2473C50.675 51.1606 50.46 51.0306 50.27 50.8573C50.0833 50.6806 49.9333 50.464 49.82 50.2073C49.7067 49.9473 49.65 49.644 49.65 49.2973C49.65 48.974 49.71 48.6706 49.83 48.3873C49.95 48.104 50.1183 47.8556 50.335 47.6423C50.5517 47.429 50.8117 47.2606 51.115 47.1373C51.4183 47.014 51.7533 46.9523 52.12 46.9523C52.49 46.9523 52.8217 47.0106 53.115 47.1273C53.4117 47.244 53.6633 47.4073 53.87 47.6173C54.08 47.8273 54.24 48.079 54.35 48.3723C54.4633 48.6656 54.52 48.9873 54.52 49.3373C54.52 49.5606 54.5 49.7723 54.46 49.9723C54.4233 50.1723 54.3683 50.3656 54.295 50.5523C54.225 50.7356 54.14 50.9156 54.04 51.0923C53.94 51.2656 53.8283 51.4406 53.705 51.6173L52.05 53.9773C51.9933 54.0573 51.9083 54.1256 51.795 54.1823C51.685 54.2356 51.5583 54.2623 51.415 54.2623H50.28L52.525 51.4573C52.5817 51.3873 52.635 51.319 52.685 51.2523C52.735 51.1856 52.7833 51.119 52.83 51.0523C52.6633 51.159 52.48 51.2406 52.28 51.2973C52.08 51.3506 51.87 51.3773 51.65 51.3773ZM53.335 49.2123C53.335 49.0156 53.305 48.8406 53.245 48.6873C53.185 48.5306 53.1 48.399 52.99 48.2923C52.88 48.1856 52.7483 48.104 52.595 48.0473C52.445 47.9906 52.28 47.9623 52.1 47.9623C51.9133 47.9623 51.745 47.994 51.595 48.0573C51.445 48.1173 51.3167 48.2023 51.21 48.3123C51.1067 48.4223 51.0267 48.554 50.97 48.7073C50.9133 48.8573 50.885 49.0223 50.885 49.2023C50.885 49.6056 50.9883 49.914 51.195 50.1273C51.405 50.3373 51.7017 50.4423 52.085 50.4423C52.285 50.4423 52.4617 50.4106 52.615 50.3473C52.7717 50.284 52.9033 50.1973 53.01 50.0873C53.1167 49.9773 53.1967 49.8473 53.25 49.6973C53.3067 49.5473 53.335 49.3856 53.335 49.2123Z" fill="white"/>
</svg>
