<svg width="60" height="60" viewBox="0 0 60 60" fill="none" xmlns="http://www.w3.org/2000/svg">
<rect width="60" height="60" fill="white"/>
<path d="M49.3976 51.6233H44.7162V50.213C44.7162 46.9833 43.8543 44.4906 42.1545 42.804C42.0189 42.6695 41.8811 42.5434 41.742 42.4251C41.8977 42.247 42.0319 42.0352 42.1439 41.8093C42.246 41.9111 42.3434 41.9958 42.428 42.0592C42.9111 42.4217 43.7715 42.5868 44.3665 42.5868C45.2025 42.5868 45.6057 42.2839 45.7967 42.0297C46.2053 41.4862 46.0354 40.7196 45.8208 40.1722C45.6377 39.7049 45.296 39.096 44.8862 38.7885C44.7963 38.7209 44.6886 38.6525 44.5689 38.5864C44.9737 38.2117 45.3687 37.6824 45.2841 37.0877C45.1463 36.1193 43.7477 35.5469 42.8587 35.4415C42.86 35.3812 42.8575 35.3206 42.8489 35.2599C42.6956 34.183 40.9833 33.5956 40.1464 33.5956C40.0638 33.5956 39.9847 33.6009 39.9115 33.6113C39.4919 33.6708 38.9246 33.8771 38.4491 34.2179C39.5244 32.3458 39.7795 30.6611 39.7906 30.5844C39.7953 30.5517 39.7977 30.5187 39.7977 30.4856V30.3383C40.2815 30.219 40.7024 29.9696 41.0366 29.5999C42.0117 28.5209 41.9551 26.8186 41.8854 26.137C41.8325 25.618 41.5976 25.1825 41.206 24.8777C40.7777 24.5441 40.237 24.4275 39.7976 24.3952V23.6791C42.8303 23.4912 44.8419 21.9896 46.0186 20.7167C47.3709 19.2535 47.9262 17.7907 47.9492 17.7291C47.9507 17.7253 47.9515 17.7214 47.9529 17.7176C47.9576 17.7044 47.9617 17.6911 47.9656 17.6776C47.968 17.6692 47.9704 17.6609 47.9725 17.6525C47.9754 17.6405 47.9778 17.6284 47.9801 17.6162C47.9819 17.6065 47.984 17.5969 47.9854 17.5873C47.987 17.5771 47.9876 17.5668 47.9886 17.5565C47.9929 17.5137 47.9931 17.471 47.9895 17.4289C47.9886 17.419 47.988 17.4092 47.9868 17.3995C47.9854 17.3894 47.9835 17.3795 47.9817 17.3695C47.9796 17.3582 47.9778 17.347 47.9753 17.3358C47.9732 17.3268 47.9707 17.318 47.9683 17.3091C47.9651 17.2972 47.9618 17.2853 47.958 17.2735C47.9552 17.2651 47.9521 17.257 47.9491 17.2488C47.9446 17.2371 47.9401 17.2254 47.935 17.2138C47.9314 17.2054 47.9275 17.1972 47.9235 17.189C47.9184 17.1783 47.913 17.1678 47.9072 17.1573C47.9022 17.1483 47.8972 17.1396 47.8918 17.1308C47.8863 17.1218 47.8806 17.113 47.8748 17.1042C47.8682 17.0945 47.8615 17.0849 47.8545 17.0755C47.8522 17.0723 47.8501 17.0689 47.8476 17.0657C47.8404 17.0565 47.8323 17.0466 47.8234 17.0362C47.5345 16.6962 46.3217 15.744 41.8439 15.744C40.8464 15.744 39.1002 15.5506 38.6138 14.2546C37.0568 10.1045 35.4768 8 33.9181 8C32.4108 8 30.7245 8.67948 30.0433 8.98462C29.3619 8.67948 27.6756 8 26.1682 8C24.6097 8 23.0297 10.1044 21.4722 14.2549C20.986 15.5509 19.2398 15.7443 18.2423 15.7443C16.1993 15.7443 12.7381 15.9343 12.1657 17.1832C12.1526 17.2096 12.1405 17.2367 12.1309 17.2646L12.1302 17.2672C12.1212 17.2934 12.1144 17.3203 12.1087 17.3475C12.1072 17.3545 12.1059 17.3615 12.1046 17.3685C12.1002 17.3933 12.097 17.4182 12.0953 17.4435C12.0951 17.4467 12.0946 17.4498 12.0944 17.453C12.093 17.4815 12.0934 17.5101 12.0955 17.5388C12.0959 17.5445 12.0968 17.55 12.0974 17.5556C12.0996 17.5782 12.103 17.6008 12.1075 17.6233C12.1089 17.6308 12.1104 17.638 12.1121 17.6454C12.1177 17.6695 12.1246 17.6934 12.133 17.7173C12.1342 17.7206 12.1349 17.7239 12.1361 17.7271L12.1368 17.7292C12.1597 17.7908 12.7152 19.2535 14.0675 20.7168C15.2442 21.9898 17.2558 23.4913 20.2885 23.6792V24.394C19.8463 24.4248 19.2974 24.54 18.8637 24.8778C18.4722 25.1826 18.2372 25.6181 18.1842 26.1371C18.1147 26.8189 18.058 28.5212 19.0332 29.6C19.3711 29.9739 19.7979 30.2245 20.2884 30.342V30.4858C20.2884 30.5189 20.2908 30.5519 20.2955 30.5846C20.3076 30.6678 20.6066 32.647 21.9321 34.7036C22.7823 36.0228 24.1786 37.5445 26.3879 38.4568C26.3825 38.4917 26.3788 38.5272 26.3788 38.5635V40.6499H22.9333C22.819 40.6512 20.0983 40.6545 17.9318 42.8041C16.232 44.4906 15.3702 46.9834 15.3702 50.2131V51.6234H10.6888C10.3084 51.6234 10 51.9316 10 52.3117C10 52.6918 10.3084 53 10.6888 53H49.3977C49.7782 53 50.0865 52.6918 50.0865 52.3117C50.0864 51.9315 49.7781 51.6233 49.3976 51.6233ZM43.3387 50.213V51.6233H39.8802V42.805C40.3173 43.0473 40.7639 43.3642 41.1839 43.7809C42.6137 45.1995 43.3387 47.3636 43.3387 50.213ZM30.0432 46.0802C32.394 46.0802 34.3368 44.3054 34.603 42.0265H36.0304V47.7666H24.0891V42.0265H25.4834C25.7495 44.3054 27.6923 46.0802 30.0432 46.0802ZM37.5239 37.6288C37.591 37.4362 37.7099 37.2013 37.8951 37.1749C37.9093 37.1729 37.9226 37.1719 37.9357 37.1719C38.2739 37.1719 38.6763 37.9157 38.7403 38.3652C38.7835 38.6688 38.4834 39.4749 38.2562 39.7133C37.9715 39.5478 37.4585 38.8571 37.4154 38.5534C37.3914 38.3851 37.3998 37.9852 37.5239 37.6288ZM39.9592 39.4566C40.0262 39.264 40.1451 39.0291 40.3304 39.0028C40.3445 39.0007 40.3578 38.9997 40.371 38.9997C40.7091 38.9997 41.1115 39.7435 41.1755 40.193C41.2187 40.4966 40.9187 41.3026 40.6915 41.5411C40.4067 41.3754 39.8938 40.6848 39.8506 40.3812C39.8266 40.2129 39.8349 39.8129 39.9592 39.4566ZM36.0515 38.7474C36.1253 39.2651 36.6004 40.1214 37.2234 40.6508C37.1889 40.65 37.1657 40.6499 37.158 40.6499H33.7076V38.5635C33.7076 38.5272 33.7039 38.4917 33.6984 38.4568C34.7899 38.0061 35.6824 37.4067 36.4092 36.7565C36.3383 36.8848 36.2759 37.0246 36.2232 37.176C36.0159 37.77 36.0012 38.3938 36.0515 38.7474ZM23.4004 49.1431H36.7193C37.0997 49.1431 37.408 48.835 37.408 48.4548V42.0398C37.6438 42.0602 38.0333 42.1122 38.5026 42.2427V51.6233H21.617V42.2271C22.0913 42.0991 22.4814 42.0526 22.7115 42.0359V48.4548C22.7116 48.835 23.02 49.1431 23.4004 49.1431ZM44.3665 41.2103C43.8645 41.2103 43.3692 41.044 43.2553 40.9586C43.1192 40.8564 42.8419 40.5677 42.6776 40.2279C42.5888 40.0444 42.5068 39.7943 42.6188 39.6449C42.645 39.6101 42.7147 39.5181 42.9714 39.5181C43.3584 39.5181 43.8517 39.7337 44.059 39.8893C44.3034 40.0727 44.66 40.8497 44.6704 41.181C44.6089 41.1957 44.5092 41.2103 44.3665 41.2103ZM42.729 38.1261C42.7 38.1302 42.6368 38.1372 42.5407 38.1372C42.0705 38.1372 41.3948 37.9667 41.3494 37.6467C41.323 37.4616 41.5157 37.2821 41.682 37.164C41.9899 36.9455 42.372 36.826 42.5406 36.8022C42.5428 36.8019 42.5557 36.8002 42.5816 36.8002C42.9842 36.8002 43.6742 37.0829 43.8894 37.2862C43.7235 37.5708 43.0328 38.0829 42.729 38.1261ZM40.1056 34.9744C40.1078 34.9741 40.1207 34.9723 40.1465 34.9723C40.549 34.9723 41.2391 35.2551 41.4543 35.4584C41.2881 35.7429 40.5974 36.2551 40.2937 36.2983C40.2647 36.3024 40.2014 36.3094 40.1054 36.3094C39.6352 36.3094 38.9596 36.1389 38.9142 35.8189C38.8626 35.4567 39.6711 35.0361 40.1056 34.9744ZM40.3595 25.9635C40.426 26.0153 40.4965 26.0931 40.5152 26.2768C40.5972 27.0788 40.5086 28.1306 40.0145 28.6774C39.9482 28.7506 39.8759 28.811 39.7979 28.8617V25.7782C40.01 25.8028 40.2232 25.8574 40.3595 25.9635ZM39.7979 22.2988V21.3403C42.1365 20.8563 43.8655 20.24 45.1058 19.6663C44.0239 20.8737 42.3159 22.1162 39.7979 22.2988ZM18.2423 17.121C20.5803 17.121 22.1855 16.2747 22.7621 14.7382C24.1445 11.0544 25.4968 9.37657 26.1682 9.37657C27.7419 9.37657 29.7158 10.3504 29.7355 10.3602C29.7415 10.3631 29.7476 10.3653 29.7536 10.3681C29.7611 10.3716 29.7687 10.3748 29.7763 10.378C29.7902 10.3838 29.804 10.3893 29.8181 10.3941C29.8242 10.3962 29.8304 10.3981 29.8366 10.4001C29.8522 10.4051 29.8678 10.4095 29.8835 10.4133C29.8886 10.4145 29.8939 10.4155 29.899 10.4166C29.9156 10.4202 29.9322 10.4234 29.949 10.4257C29.9543 10.4264 29.9596 10.4269 29.965 10.4275C29.9815 10.4294 29.9978 10.4309 30.0143 10.4316C30.021 10.4318 30.0276 10.4318 30.0343 10.4318C30.0493 10.432 30.0644 10.432 30.0794 10.4312C30.0877 10.4307 30.0961 10.4298 30.1044 10.4291C30.1178 10.4279 30.1312 10.4266 30.1445 10.4246C30.154 10.4232 30.1635 10.4213 30.173 10.4195C30.1853 10.4171 30.1977 10.4147 30.2097 10.4117C30.2193 10.4093 30.2289 10.4064 30.2385 10.4036C30.2507 10.3999 30.263 10.3962 30.2749 10.3919C30.2839 10.3887 30.2926 10.3852 30.3014 10.3817C30.3141 10.3765 30.3265 10.3712 30.3388 10.3653C30.3428 10.3634 30.3468 10.3621 30.3507 10.3601C30.3706 10.3504 32.3444 9.37657 33.9181 9.37657C34.5897 9.37657 35.942 11.0544 37.3243 14.7382C37.9009 16.2747 39.5061 17.121 41.8442 17.121C44.062 17.121 45.3356 17.3699 46.0339 17.5952C45.4774 17.9561 44.5959 18.4405 43.3089 18.9224C39.0573 20.5144 33.7483 20.8485 30.0433 20.8485C26.3382 20.8485 21.0292 20.5143 16.7776 18.9224C15.4435 18.4228 14.5452 17.9206 13.9933 17.5566C14.6374 17.3537 15.8893 17.121 18.2423 17.121ZM15.1139 19.8198C15.0645 19.7669 15.0167 19.7141 14.9697 19.6611C16.2106 20.2362 17.9429 20.8548 20.2885 21.3403V22.2977C18.2598 22.1545 16.5207 21.3244 15.1139 19.8198ZM20.0556 28.6774C19.5615 28.1307 19.4729 27.0788 19.5547 26.2768C19.5733 26.0939 19.6431 26.0165 19.709 25.9647C19.8484 25.8552 20.0695 25.8001 20.2884 25.7765V28.8718C20.2042 28.8193 20.1264 28.7557 20.0556 28.6774ZM23.1178 34.0007C22.0401 32.3478 21.7157 30.7114 21.666 30.4295V21.5968C23.937 21.9753 26.7009 22.2251 30.0432 22.2251C33.3855 22.2251 36.1493 21.9753 38.4203 21.5969V30.4294C38.37 30.7147 38.0452 32.3495 36.9686 34.0008C36.8888 34.1231 36.8064 34.2419 36.7226 34.3586L34.5203 32.7056C34.454 32.6558 34.3815 32.6207 34.3066 32.5979C34.2967 32.5854 34.2869 32.5726 34.2758 32.5606C34.0194 32.2797 33.586 32.2577 33.3051 32.5138C33.301 32.5174 32.883 32.8795 32.0585 33.1626C31.6988 33.2861 31.5073 33.6777 31.631 34.0372C31.7291 34.3226 31.9964 34.5019 32.2823 34.5019C32.3566 34.5019 32.4321 34.4898 32.5062 34.4644C33.0668 34.2718 33.4879 34.0478 33.7745 33.8673L35.8341 35.4132C34.3706 36.8895 32.4517 37.7145 30.1073 37.8706H29.9793C26.97 37.6701 24.6614 36.3682 23.1178 34.0007ZM29.9121 39.2458C29.9269 39.2467 29.9418 39.2472 29.9567 39.2472H30.1299C30.1448 39.2472 30.1596 39.2468 30.1744 39.2458C30.955 39.1952 31.6713 39.0776 32.3301 38.9091V41.3382C32.3301 41.7184 32.6384 42.0265 33.0189 42.0265H33.2124C32.9566 43.5438 31.6333 44.7036 30.0433 44.7036C28.4532 44.7036 27.1299 43.5438 26.8742 42.0265H27.0677C27.4481 42.0265 27.7565 41.7184 27.7565 41.3382V38.9091C28.4153 39.0776 29.1315 39.1952 29.9121 39.2458ZM16.7478 50.213C16.7478 45.7234 18.5719 43.6962 20.2395 42.7806V51.6233H16.7478V50.213Z" fill="#595959"/>
<path d="M25.1473 25.5855C25.6013 25.5855 25.9693 25.2177 25.9693 24.7641C25.9693 24.3104 25.6013 23.9426 25.1473 23.9426C24.6933 23.9426 24.3252 24.3104 24.3252 24.7641C24.3252 25.2177 24.6933 25.5855 25.1473 25.5855Z" fill="#595959"/>
<path d="M34.9254 25.5855C35.3794 25.5855 35.7475 25.2177 35.7475 24.7641C35.7475 24.3104 35.3794 23.9426 34.9254 23.9426C34.4714 23.9426 34.1034 24.3104 34.1034 24.7641C34.1034 25.2177 34.4714 25.5855 34.9254 25.5855Z" fill="#595959"/>
<path d="M31.8672 27.951C31.8672 27.5709 31.5588 27.2627 31.1784 27.2627C30.7979 27.2627 30.4896 27.5709 30.4896 27.951C30.4896 28.1028 30.3659 28.2263 30.214 28.2263H29.8588C29.7069 28.2263 29.5833 28.1028 29.5833 27.951C29.5833 27.5709 29.2749 27.2627 28.8945 27.2627C28.5141 27.2627 28.2057 27.5709 28.2057 27.951C28.2057 28.8618 28.9473 29.6029 29.8588 29.6029H30.214C31.1256 29.6029 31.8672 28.8619 31.8672 27.951Z" fill="#595959"/>
</svg>
