<svg width="60" height="61" viewBox="0 0 60 61" fill="none" xmlns="http://www.w3.org/2000/svg">
<rect width="60" height="60" fill="white"/>
<path d="M42.1565 21.3593H29.5001C29.0146 21.3593 28.6212 21.7528 28.6212 22.2382C28.6212 22.7237 29.0146 23.1172 29.5001 23.1172H42.1565C42.6419 23.1172 43.0354 22.7237 43.0354 22.2382C43.0354 21.7528 42.6419 21.3593 42.1565 21.3593Z" fill="#494949"/>
<path d="M39.081 25.8357C38.9175 25.6723 38.6907 25.5782 38.4596 25.5782C38.2284 25.5782 38.0017 25.6723 37.8382 25.8357C37.6747 25.9992 37.5807 26.226 37.5807 26.4571C37.5807 26.6883 37.6747 26.915 37.8382 27.0785C38.0017 27.242 38.2284 27.336 38.4596 27.336C38.6907 27.336 38.9175 27.242 39.081 27.0785C39.2445 26.915 39.3385 26.6883 39.3385 26.4571C39.3385 26.226 39.2445 25.9992 39.081 25.8357Z" fill="#494949"/>
<path d="M30.1205 12.0369C29.9571 11.8734 29.7303 11.7794 29.4991 11.7794C29.268 11.7794 29.0412 11.8734 28.8778 12.0369C28.7143 12.2004 28.6202 12.4271 28.6202 12.6583C28.6202 12.8894 28.7143 13.1162 28.8778 13.2797C29.0412 13.4432 29.268 13.5372 29.4991 13.5372C29.7303 13.5372 29.9571 13.4432 30.1205 13.2797C30.284 13.1162 30.378 12.8894 30.378 12.6583C30.378 12.4271 30.284 12.2004 30.1205 12.0369Z" fill="#494949"/>
<path d="M34.7627 25.5781H29.5001C29.0146 25.5781 28.6212 25.9716 28.6212 26.457C28.6212 26.9424 29.0146 27.3359 29.5001 27.3359H34.7627C35.2481 27.3359 35.6416 26.9424 35.6416 26.457C35.6416 25.9716 35.2481 25.5781 34.7627 25.5781Z" fill="#494949"/>
<path d="M42.1565 30.8515H29.5001C29.0146 30.8515 28.6212 31.245 28.6212 31.7304C28.6212 32.2159 29.0146 32.6093 29.5001 32.6093H42.1565C42.6419 32.6093 43.0354 32.2159 43.0354 31.7304C43.0354 31.245 42.6419 30.8515 42.1565 30.8515Z" fill="#494949"/>
<path d="M39.081 35.3279C38.9175 35.1644 38.6907 35.0704 38.4596 35.0704C38.2284 35.0704 38.0017 35.1644 37.8382 35.3279C37.6747 35.4914 37.5807 35.7181 37.5807 35.9493C37.5807 36.1804 37.6747 36.4072 37.8382 36.5707C38.0017 36.7341 38.2284 36.8282 38.4596 36.8282C38.6907 36.8282 38.9175 36.7341 39.081 36.5707C39.2445 36.4072 39.3385 36.1804 39.3385 35.9493C39.3385 35.7181 39.2445 35.4914 39.081 35.3279Z" fill="#494949"/>
<path d="M34.7627 35.0703H29.5001C29.0146 35.0703 28.6212 35.4637 28.6212 35.9492C28.6212 36.4346 29.0146 36.8281 29.5001 36.8281H34.7627C35.2481 36.8281 35.6416 36.4346 35.6416 35.9492C35.6416 35.4637 35.2481 35.0703 34.7627 35.0703Z" fill="#494949"/>
<path d="M42.1565 40.3437H29.5001C29.0146 40.3437 28.6212 40.7372 28.6212 41.2226C28.6212 41.708 29.0146 42.1015 29.5001 42.1015H42.1565C42.6419 42.1015 43.0354 41.708 43.0354 41.2226C43.0354 40.7372 42.6419 40.3437 42.1565 40.3437Z" fill="#494949"/>
<path d="M39.081 44.8201C38.9175 44.6566 38.6907 44.5626 38.4596 44.5626C38.2284 44.5626 38.0017 44.6566 37.8382 44.8201C37.6747 44.9836 37.5807 45.2103 37.5807 45.4415C37.5807 45.6726 37.6747 45.8994 37.8382 46.0629C38.0017 46.2263 38.2284 46.3204 38.4596 46.3204C38.6907 46.3204 38.9175 46.2263 39.081 46.0629C39.2445 45.8994 39.3385 45.6726 39.3385 45.4415C39.3385 45.2103 39.2445 44.9836 39.081 44.8201Z" fill="#494949"/>
<path d="M34.7627 44.5624H29.5001C29.0146 44.5624 28.6212 44.9559 28.6212 45.4413C28.6212 45.9268 29.0146 46.3202 29.5001 46.3202H34.7627C35.2481 46.3202 35.6416 45.9268 35.6416 45.4413C35.6416 44.9559 35.2481 44.5624 34.7627 44.5624Z" fill="#494949"/>
<path d="M43.8474 11.4278H37.1345C36.1641 10.5031 34.8523 9.93359 33.4092 9.93359H32.6393C32.0507 8.76834 30.8414 8 29.4999 8C28.1585 8 26.9493 8.76834 26.3606 9.93359H25.5888C24.1457 9.93359 22.8341 10.5031 21.8637 11.4278H15.1526C12.7897 11.4278 10.8672 13.3502 10.8672 15.7132V48.7146C10.8672 51.0776 12.7897 53 15.1526 53H43.8474C46.2103 53 48.1327 51.0776 48.1327 48.7146V15.7132C48.1328 13.3502 46.2104 11.4278 43.8474 11.4278ZM25.5889 11.6914H26.9588C27.3541 11.6914 27.7007 11.4275 27.8059 11.0465C28.0156 10.2877 28.7122 9.75781 29.5 9.75781C30.2879 9.75781 30.9845 10.2877 31.194 11.0465C31.2992 11.4275 31.646 11.6914 32.0412 11.6914H33.4092C35.3169 11.6914 36.8871 13.1636 37.0438 15.0313H21.9543C22.111 13.1636 23.6813 11.6914 25.5889 11.6914ZM46.375 48.7147C46.375 50.1084 45.2411 51.2423 43.8474 51.2423H15.1526C13.7589 51.2423 12.6251 50.1084 12.6251 48.7147V15.7132C12.6251 14.3195 13.7589 13.1856 15.1526 13.1856H20.6323C20.3444 13.8459 20.1836 14.5738 20.1836 15.3389V15.9102C20.1836 16.3956 20.5771 16.7891 21.0625 16.7891H37.9357C38.4211 16.7891 38.8146 16.3956 38.8146 15.9102V15.3389C38.8146 14.5739 38.6538 13.8459 38.3659 13.1856H43.8474C45.2411 13.1856 46.375 14.3195 46.375 15.7132V48.7147Z" fill="#494949"/>
<path d="M23.911 21.148C23.5678 20.8047 23.0113 20.8047 22.6681 21.1479L18.9097 24.9063L17.7519 23.7485C17.4087 23.4053 16.8522 23.4053 16.5089 23.7485C16.1657 24.0917 16.1657 24.6482 16.5089 24.9915L18.2882 26.7708C18.4599 26.9425 18.6848 27.0283 18.9097 27.0283C19.1346 27.0283 19.3596 26.9425 19.5312 26.7708L23.911 22.391C24.2542 22.0478 24.2542 21.4913 23.911 21.148Z" fill="#494949"/>
<path d="M21.7657 40.3437H17.5469C17.0615 40.3437 16.668 40.7372 16.668 41.2226V45.4413C16.668 45.9268 17.0615 46.3202 17.5469 46.3202H21.7657C22.2511 46.3202 22.6446 45.9268 22.6446 45.4413V41.2226C22.6446 40.7372 22.2511 40.3437 21.7657 40.3437ZM20.8868 44.5624H18.4258V42.1015H20.8868V44.5624Z" fill="#494949"/>
<path d="M21.7657 30.8515H17.5469C17.0615 30.8515 16.668 31.245 16.668 31.7304V35.9492C16.668 36.4346 17.0615 36.8281 17.5469 36.8281H21.7657C22.2511 36.8281 22.6446 36.4346 22.6446 35.9492V31.7304C22.6446 31.245 22.2511 30.8515 21.7657 30.8515ZM20.8868 35.0703H18.4258V32.6093H20.8868V35.0703Z" fill="#494949"/>
<circle cx="50" cy="51" r="10" fill="#EA6464"/>
<path d="M46.8492 52.115C46.5992 52.115 46.3542 52.0717 46.1142 51.985C45.8742 51.8983 45.6592 51.7683 45.4692 51.595C45.2826 51.4183 45.1326 51.2017 45.0192 50.945C44.9059 50.685 44.8492 50.3817 44.8492 50.035C44.8492 49.7117 44.9092 49.4083 45.0292 49.125C45.1492 48.8417 45.3176 48.5933 45.5342 48.38C45.7509 48.1667 46.0109 47.9983 46.3142 47.875C46.6176 47.7517 46.9526 47.69 47.3192 47.69C47.6892 47.69 48.0209 47.7483 48.3142 47.865C48.6109 47.9817 48.8626 48.145 49.0692 48.355C49.2792 48.565 49.4392 48.8167 49.5492 49.11C49.6626 49.4033 49.7192 49.725 49.7192 50.075C49.7192 50.2983 49.6992 50.51 49.6592 50.71C49.6226 50.91 49.5676 51.1033 49.4942 51.29C49.4242 51.4733 49.3392 51.6533 49.2392 51.83C49.1392 52.0033 49.0276 52.1783 48.9042 52.355L47.2492 54.715C47.1926 54.795 47.1076 54.8633 46.9942 54.92C46.8842 54.9733 46.7576 55 46.6142 55H45.4792L47.7242 52.195C47.7809 52.125 47.8342 52.0567 47.8842 51.99C47.9342 51.9233 47.9826 51.8567 48.0292 51.79C47.8626 51.8967 47.6792 51.9783 47.4792 52.035C47.2792 52.0883 47.0692 52.115 46.8492 52.115ZM48.5342 49.95C48.5342 49.7533 48.5042 49.5783 48.4442 49.425C48.3842 49.2683 48.2992 49.1367 48.1892 49.03C48.0792 48.9233 47.9476 48.8417 47.7942 48.785C47.6442 48.7283 47.4792 48.7 47.2992 48.7C47.1126 48.7 46.9442 48.7317 46.7942 48.795C46.6442 48.855 46.5159 48.94 46.4092 49.05C46.3059 49.16 46.2259 49.2917 46.1692 49.445C46.1126 49.595 46.0842 49.76 46.0842 49.94C46.0842 50.3433 46.1876 50.6517 46.3942 50.865C46.6042 51.075 46.9009 51.18 47.2842 51.18C47.4842 51.18 47.6609 51.1483 47.8142 51.085C47.9709 51.0217 48.1026 50.935 48.2092 50.825C48.3159 50.715 48.3959 50.585 48.4492 50.435C48.5059 50.285 48.5342 50.1233 48.5342 49.95ZM52.65 52.115C52.4 52.115 52.155 52.0717 51.915 51.985C51.675 51.8983 51.46 51.7683 51.27 51.595C51.0833 51.4183 50.9333 51.2017 50.82 50.945C50.7067 50.685 50.65 50.3817 50.65 50.035C50.65 49.7117 50.71 49.4083 50.83 49.125C50.95 48.8417 51.1183 48.5933 51.335 48.38C51.5517 48.1667 51.8117 47.9983 52.115 47.875C52.4183 47.7517 52.7533 47.69 53.12 47.69C53.49 47.69 53.8217 47.7483 54.115 47.865C54.4117 47.9817 54.6633 48.145 54.87 48.355C55.08 48.565 55.24 48.8167 55.35 49.11C55.4633 49.4033 55.52 49.725 55.52 50.075C55.52 50.2983 55.5 50.51 55.46 50.71C55.4233 50.91 55.3683 51.1033 55.295 51.29C55.225 51.4733 55.14 51.6533 55.04 51.83C54.94 52.0033 54.8283 52.1783 54.705 52.355L53.05 54.715C52.9933 54.795 52.9083 54.8633 52.795 54.92C52.685 54.9733 52.5583 55 52.415 55H51.28L53.525 52.195C53.5817 52.125 53.635 52.0567 53.685 51.99C53.735 51.9233 53.7833 51.8567 53.83 51.79C53.6633 51.8967 53.48 51.9783 53.28 52.035C53.08 52.0883 52.87 52.115 52.65 52.115ZM54.335 49.95C54.335 49.7533 54.305 49.5783 54.245 49.425C54.185 49.2683 54.1 49.1367 53.99 49.03C53.88 48.9233 53.7483 48.8417 53.595 48.785C53.445 48.7283 53.28 48.7 53.1 48.7C52.9133 48.7 52.745 48.7317 52.595 48.795C52.445 48.855 52.3167 48.94 52.21 49.05C52.1067 49.16 52.0267 49.2917 51.97 49.445C51.9133 49.595 51.885 49.76 51.885 49.94C51.885 50.3433 51.9883 50.6517 52.195 50.865C52.405 51.075 52.7017 51.18 53.085 51.18C53.285 51.18 53.4617 51.1483 53.615 51.085C53.7717 51.0217 53.9033 50.935 54.01 50.825C54.1167 50.715 54.1967 50.585 54.25 50.435C54.3067 50.285 54.335 50.1233 54.335 49.95Z" fill="white"/>
</svg>
